<svg width="32" height="34" viewBox="0 0 32 34" fill="none" xmlns="http://www.w3.org/2000/svg">
<g filter="url(#filter0_d)">
<mask id="path-1-outside-1" maskUnits="userSpaceOnUse" x="4.66663" y="2" width="22" height="26" fill="black">
<rect fill="white" x="4.66663" y="2" width="22" height="26"/>
<path fill-rule="evenodd" clip-rule="evenodd" d="M11.7807 17.3333L10.5985 15.5271C9.79136 14.2938 8.07201 13.8438 6.75686 14.52L7.0633 14.3624C6.73692 14.5302 6.58042 14.9485 6.7148 15.2962L8.35116 19.5299C8.61057 20.201 9.2731 21.1503 9.82211 21.6271C9.82211 21.6271 13.114 24.3518 13.114 25.3734V26.6667H18.4474L19.7807 24L21.114 26.6667H22.4474V25.3734C22.4474 24.3518 24.4591 21.1342 24.4591 21.1342C24.8295 20.5088 25.1381 19.407 25.1381 18.6755V13.2957C25.114 12.1047 24.1016 11.1394 22.8523 11.1394C22.2273 11.1394 21.7211 11.622 21.7211 12.2179V12.6488C21.7211 11.4577 20.7087 10.4924 19.4594 10.4924C18.8344 10.4924 18.3282 10.9751 18.3282 11.5709V12.0018C18.3282 10.8107 17.3158 9.84544 16.0665 9.84544C15.4415 9.84544 14.9353 10.3281 14.9353 10.9239V11.3548C14.9353 11.1634 14.9148 11.0112 14.8753 10.8907L14.5303 5.33495C14.4836 4.58368 13.8504 4 13.114 4C12.3725 4 11.7807 4.59684 11.7807 5.33308V10.6667V17.3333ZM21.1382 16H22.4715V21.3333H21.1382V16ZM18.4715 16H19.8048V21.3333H18.4715V16ZM15.8049 16H17.1382V21.3333H15.8049V16Z"/>
</mask>
<path fill-rule="evenodd" clip-rule="evenodd" d="M11.7807 17.3333L10.5985 15.5271C9.79136 14.2938 8.07201 13.8438 6.75686 14.52L7.0633 14.3624C6.73692 14.5302 6.58042 14.9485 6.7148 15.2962L8.35116 19.5299C8.61057 20.201 9.2731 21.1503 9.82211 21.6271C9.82211 21.6271 13.114 24.3518 13.114 25.3734V26.6667H18.4474L19.7807 24L21.114 26.6667H22.4474V25.3734C22.4474 24.3518 24.4591 21.1342 24.4591 21.1342C24.8295 20.5088 25.1381 19.407 25.1381 18.6755V13.2957C25.114 12.1047 24.1016 11.1394 22.8523 11.1394C22.2273 11.1394 21.7211 11.622 21.7211 12.2179V12.6488C21.7211 11.4577 20.7087 10.4924 19.4594 10.4924C18.8344 10.4924 18.3282 10.9751 18.3282 11.5709V12.0018C18.3282 10.8107 17.3158 9.84544 16.0665 9.84544C15.4415 9.84544 14.9353 10.3281 14.9353 10.9239V11.3548C14.9353 11.1634 14.9148 11.0112 14.8753 10.8907L14.5303 5.33495C14.4836 4.58368 13.8504 4 13.114 4C12.3725 4 11.7807 4.59684 11.7807 5.33308V10.6667V17.3333ZM21.1382 16H22.4715V21.3333H21.1382V16ZM18.4715 16H19.8048V21.3333H18.4715V16ZM15.8049 16H17.1382V21.3333H15.8049V16Z" fill="white"/>
<path d="M11.7807 17.3333L10.6651 18.0635L13.114 21.8053V17.3333H11.7807ZM10.5985 15.5271L11.7142 14.7969H11.7142L10.5985 15.5271ZM6.7148 15.2962L5.47113 15.7769L6.7148 15.2962ZM8.35116 19.5299L9.59483 19.0492L8.35116 19.5299ZM9.82211 21.6271L8.9478 22.6337L8.95975 22.6441L8.97195 22.6542L9.82211 21.6271ZM13.114 26.6667H11.7807V28H13.114V26.6667ZM18.4474 26.6667V28H19.2714L19.6399 27.263L18.4474 26.6667ZM19.7807 24L20.9733 23.4037L19.7807 21.0186L18.5881 23.4037L19.7807 24ZM21.114 26.6667L19.9215 27.263L20.29 28H21.114V26.6667ZM22.4474 26.6667V28H23.7807V26.6667H22.4474ZM24.4591 21.1342L25.5897 21.8411L25.5982 21.8274L25.6064 21.8136L24.4591 21.1342ZM25.1381 13.2957H26.4715V13.2822L26.4712 13.2687L25.1381 13.2957ZM14.8753 10.8907L13.5445 10.9733L13.5551 11.1437L13.6083 11.306L14.8753 10.8907ZM14.5303 5.33495L13.1995 5.4176V5.4176L14.5303 5.33495ZM11.7807 5.33308H10.4474H11.7807ZM22.4715 16H23.8048V14.6667L22.4715 14.6667V16ZM22.4715 21.3333V22.6667H23.8048V21.3333H22.4715ZM21.1382 21.3333H19.8049V22.6667H21.1382V21.3333ZM19.8048 16H21.1382V14.6667L19.8048 14.6667V16ZM19.8048 21.3333V22.6667H21.1382V21.3333H19.8048ZM18.4715 21.3333H17.1382V22.6667H18.4715V21.3333ZM17.1382 16H18.4715V14.6667L17.1382 14.6667V16ZM17.1382 21.3333V22.6667H18.4715V21.3333H17.1382ZM15.8049 21.3333H14.4715V22.6667H15.8049V21.3333ZM12.8963 16.6032L11.7142 14.7969L9.48291 16.2573L10.6651 18.0635L12.8963 16.6032ZM11.7142 14.7969C10.5307 12.9887 8.06519 12.3481 6.14724 13.3341L7.36648 15.7058C8.07883 15.3395 9.052 15.5989 9.48291 16.2573L11.7142 14.7969ZM7.36648 15.7058L7.67292 15.5482L6.45368 13.1766L6.14724 13.3341L7.36648 15.7058ZM6.45368 13.1766C5.50805 13.6628 5.09624 14.807 5.47113 15.7769L7.95847 14.8155C8.01924 14.9727 8.00599 15.1195 7.96532 15.2284C7.92477 15.3369 7.83526 15.4648 7.67292 15.5482L6.45368 13.1766ZM5.47113 15.7769L7.10749 20.0106L9.59483 19.0492L7.95847 14.8155L5.47113 15.7769ZM7.10749 20.0106C7.44444 20.8823 8.23285 22.0128 8.9478 22.6337L10.6964 20.6204C10.3134 20.2877 9.7767 19.5197 9.59483 19.0492L7.10749 20.0106ZM9.82211 21.6271C8.97195 22.6542 8.97187 22.6542 8.9718 22.6541C8.9718 22.6541 8.97174 22.654 8.97173 22.654C8.9717 22.654 8.97173 22.654 8.9718 22.6541C8.97195 22.6542 8.9723 22.6545 8.97284 22.655C8.97391 22.6559 8.97576 22.6574 8.97835 22.6595C8.98354 22.6639 8.99171 22.6707 9.00266 22.6799C9.02457 22.6982 9.05758 22.726 9.10011 22.7621C9.18522 22.8345 9.30806 22.94 9.45596 23.07C9.75313 23.3314 10.1451 23.6864 10.5334 24.0681C10.9276 24.4555 11.2902 24.8433 11.5449 25.1727C11.6729 25.3382 11.7507 25.4597 11.7908 25.5366C11.8449 25.64 11.7807 25.5654 11.7807 25.3734H14.4474C14.4474 24.9259 14.2803 24.5427 14.1543 24.3016C14.0145 24.034 13.835 23.775 13.6544 23.5414C13.2919 23.0726 12.8315 22.5877 12.4027 22.1662C11.968 21.739 11.537 21.349 11.217 21.0675C11.0563 20.9262 10.9219 20.8108 10.827 20.7302C10.7795 20.6898 10.7418 20.6581 10.7155 20.636C10.7023 20.625 10.692 20.6164 10.6848 20.6103C10.6811 20.6073 10.6782 20.6049 10.6762 20.6032C10.6751 20.6023 10.6743 20.6016 10.6736 20.6011C10.6733 20.6008 10.673 20.6006 10.6728 20.6004C10.6727 20.6003 10.6725 20.6002 10.6725 20.6001C10.6724 20.6 10.6723 20.6 9.82211 21.6271ZM11.7807 25.3734V26.6667H14.4474V25.3734H11.7807ZM13.114 28H18.4474V25.3333H13.114V28ZM19.6399 27.263L20.9733 24.5963L18.5881 23.4037L17.2548 26.0704L19.6399 27.263ZM18.5881 24.5963L19.9215 27.263L22.3066 26.0704L20.9733 23.4037L18.5881 24.5963ZM21.114 28H22.4474V25.3333H21.114V28ZM23.7807 26.6667V25.3734H21.114V26.6667H23.7807ZM23.7807 25.3734C23.7807 25.4211 23.7953 25.2585 23.9895 24.8C24.1547 24.4098 24.3842 23.9532 24.6267 23.5039C24.8668 23.0588 25.1086 22.6413 25.2912 22.3337C25.3822 22.1805 25.4578 22.0557 25.5103 21.97C25.5365 21.9271 25.5568 21.8941 25.5704 21.8721C25.5772 21.8612 25.5823 21.853 25.5855 21.8478C25.5872 21.8452 25.5883 21.8433 25.589 21.8422C25.5894 21.8416 25.5896 21.8412 25.5897 21.8411C25.5898 21.841 25.5898 21.8409 25.5898 21.8409C25.5898 21.8409 25.5898 21.841 25.5898 21.841C25.5897 21.841 25.5897 21.8411 24.4591 21.1342C23.3286 20.4274 23.3286 20.4275 23.3285 20.4276C23.3285 20.4276 23.3284 20.4277 23.3283 20.4278C23.3282 20.428 23.328 20.4283 23.3278 20.4286C23.3275 20.4292 23.327 20.43 23.3264 20.431C23.3251 20.433 23.3234 20.4357 23.3212 20.4392C23.3169 20.4462 23.3106 20.4562 23.3027 20.4691C23.2868 20.4948 23.2639 20.5319 23.2351 20.579C23.1775 20.6732 23.096 20.8078 22.9984 20.9722C22.8038 21.2999 22.5426 21.7506 22.2798 22.2376C22.0194 22.7203 21.7459 23.2597 21.5339 23.76C21.3509 24.1921 21.114 24.8149 21.114 25.3734H23.7807ZM25.6064 21.8136C25.8702 21.3682 26.0791 20.8175 26.2223 20.301C26.3654 19.7853 26.4715 19.2011 26.4715 18.6755H23.8048C23.8048 18.8813 23.7566 19.2138 23.6527 19.5882C23.5491 19.9619 23.4185 20.2748 23.3119 20.4549L25.6064 21.8136ZM26.4715 18.6755V13.2957H23.8048V18.6755H26.4715ZM26.4712 13.2687C26.4315 11.3091 24.7838 9.80605 22.8523 9.80605V12.4727C23.4194 12.4727 23.7965 12.9002 23.8051 13.3227L26.4712 13.2687ZM22.8523 9.80605C21.5516 9.80605 20.3878 10.8264 20.3878 12.2179H23.0544C23.0544 12.3089 23.0135 12.381 22.9724 12.4202C22.9324 12.4583 22.887 12.4727 22.8523 12.4727V9.80605ZM20.3878 12.2179V12.6488H23.0544V12.2179H20.3878ZM23.0544 12.6488C23.0544 10.6621 21.3844 9.15908 19.4594 9.15908V11.8257C20.0329 11.8257 20.3878 12.2533 20.3878 12.6488H23.0544ZM19.4594 9.15908C18.1587 9.15908 16.9949 10.1794 16.9949 11.5709H19.6615C19.6615 11.662 19.6206 11.7341 19.5795 11.7732C19.5395 11.8113 19.4941 11.8257 19.4594 11.8257V9.15908ZM16.9949 11.5709V12.0018H19.6615V11.5709H16.9949ZM19.6615 12.0018C19.6615 10.0151 17.9915 8.51211 16.0665 8.51211V11.1788C16.64 11.1788 16.9949 11.6063 16.9949 12.0018H19.6615ZM16.0665 8.51211C14.7658 8.51211 13.602 9.53248 13.602 10.9239H16.2686C16.2686 11.015 16.2277 11.0871 16.1866 11.1263C16.1466 11.1644 16.1012 11.1788 16.0665 11.1788V8.51211ZM13.602 10.9239V11.3548H16.2686V10.9239H13.602ZM16.2686 11.3548C16.2686 11.0784 16.2404 10.7745 16.1423 10.4753L13.6083 11.306C13.5978 11.274 13.5967 11.2591 13.598 11.2687C13.5992 11.2783 13.602 11.3055 13.602 11.3548H16.2686ZM16.2061 10.808L15.861 5.2523L13.1995 5.4176L13.5445 10.9733L16.2061 10.808ZM15.861 5.2523C15.7704 3.79338 14.55 2.66667 13.114 2.66667V5.33333C13.1258 5.33333 13.147 5.33795 13.1696 5.35911C13.191 5.37917 13.1984 5.39968 13.1995 5.4176L15.861 5.2523ZM13.114 2.66667C11.633 2.66667 10.4474 3.86357 10.4474 5.33308H13.114V5.33333V2.66667ZM10.4474 5.33308V10.6667H13.114V5.33308H10.4474ZM10.4474 10.6667V17.3333H13.114V10.6667H10.4474ZM21.1382 17.3333L22.4715 17.3333L22.4715 14.6667H21.1382V17.3333ZM21.1382 16V21.3333H23.8048V16H21.1382ZM22.4715 20H21.1382V22.6667H22.4715V20ZM22.4715 21.3333V16H19.8049V21.3333H22.4715ZM18.4715 17.3333L19.8049 17.3333L19.8048 14.6667H18.4715V17.3333ZM18.4715 16V21.3333H21.1382V16H18.4715ZM19.8048 20H18.4715V22.6667H19.8048V20ZM19.8048 21.3333V16H17.1382V21.3333H19.8048ZM15.8049 17.3333L17.1382 17.3333L17.1382 14.6667H15.8049V17.3333ZM15.8049 16V21.3333H18.4715V16H15.8049ZM17.1382 20H15.8049V22.6667H17.1382V20ZM17.1382 21.3333V16H14.4715V21.3333H17.1382Z" fill="black" fill-opacity="0.8" mask="url(#path-1-outside-1)"/>
</g>
<defs>
<filter id="filter0_d" x="1.3335" y="2.03848e-05" width="29.138" height="33.3333" filterUnits="userSpaceOnUse" color-interpolation-filters="sRGB">
<feFlood flood-opacity="0" result="BackgroundImageFix"/>
<feColorMatrix in="SourceAlpha" type="matrix" values="0 0 0 0 0 0 0 0 0 0 0 0 0 0 0 0 0 0 127 0" result="hardAlpha"/>
<feOffset dy="1.33333"/>
<feGaussianBlur stdDeviation="2"/>
<feColorMatrix type="matrix" values="0 0 0 0 0 0 0 0 0 0 0 0 0 0 0 0 0 0 0.2 0"/>
<feBlend mode="normal" in2="BackgroundImageFix" result="effect1_dropShadow"/>
<feBlend mode="normal" in="SourceGraphic" in2="effect1_dropShadow" result="shape"/>
</filter>
</defs>
</svg>
